<mxfile host="app.diagrams.net" modified="2021-09-07T07:18:50.356Z" agent="5.0 (Windows NT 10.0; Win64; x64) AppleWebKit/537.36 (KHTML, like Gecko) Chrome/92.0.4515.107 Safari/537.36" etag="_96okqLKSvbsQKy9A81j" version="15.0.6" type="github">
  <diagram id="rf_1BklyxOsrzf6bHOPQ" name="Page-1">
    <mxGraphModel dx="1422" dy="804" grid="1" gridSize="10" guides="1" tooltips="1" connect="1" arrows="1" fold="1" page="1" pageScale="1" pageWidth="827" pageHeight="1169" math="0" shadow="0">
      <root>
        <mxCell id="0" />
        <mxCell id="1" parent="0" />
        <mxCell id="FNQd-CyJStNkkXQy5PLT-6" style="edgeStyle=orthogonalEdgeStyle;rounded=0;orthogonalLoop=1;jettySize=auto;html=1;entryX=0.5;entryY=0;entryDx=0;entryDy=0;" edge="1" parent="1" source="FNQd-CyJStNkkXQy5PLT-1" target="FNQd-CyJStNkkXQy5PLT-3">
          <mxGeometry relative="1" as="geometry" />
        </mxCell>
        <mxCell id="FNQd-CyJStNkkXQy5PLT-1" value="&lt;font style=&quot;font-size: 14px&quot;&gt;配 对&lt;/font&gt;" style="rounded=0;whiteSpace=wrap;html=1;strokeColor=#007FFF;strokeWidth=2;" vertex="1" parent="1">
          <mxGeometry x="200" y="70" width="100" height="50" as="geometry" />
        </mxCell>
        <mxCell id="FNQd-CyJStNkkXQy5PLT-16" style="edgeStyle=orthogonalEdgeStyle;rounded=0;orthogonalLoop=1;jettySize=auto;html=1;exitX=0.5;exitY=1;exitDx=0;exitDy=0;entryX=0.5;entryY=0;entryDx=0;entryDy=0;" edge="1" parent="1" source="FNQd-CyJStNkkXQy5PLT-3" target="FNQd-CyJStNkkXQy5PLT-4">
          <mxGeometry relative="1" as="geometry" />
        </mxCell>
        <mxCell id="FNQd-CyJStNkkXQy5PLT-3" value="&lt;font style=&quot;font-size: 14px&quot;&gt;启动热点&lt;/font&gt;" style="rounded=0;whiteSpace=wrap;html=1;strokeColor=#007FFF;strokeWidth=2;" vertex="1" parent="1">
          <mxGeometry x="200" y="160" width="100" height="50" as="geometry" />
        </mxCell>
        <mxCell id="FNQd-CyJStNkkXQy5PLT-17" style="edgeStyle=orthogonalEdgeStyle;rounded=0;orthogonalLoop=1;jettySize=auto;html=1;exitX=0.5;exitY=1;exitDx=0;exitDy=0;entryX=0.5;entryY=0;entryDx=0;entryDy=0;" edge="1" parent="1" source="FNQd-CyJStNkkXQy5PLT-4" target="FNQd-CyJStNkkXQy5PLT-9">
          <mxGeometry relative="1" as="geometry" />
        </mxCell>
        <mxCell id="FNQd-CyJStNkkXQy5PLT-4" value="&lt;font style=&quot;font-size: 14px&quot;&gt;处理罗技的控制数据&lt;/font&gt;" style="whiteSpace=wrap;html=1;rounded=0;strokeColor=#007FFF;strokeWidth=2;" vertex="1" parent="1">
          <mxGeometry x="200" y="260" width="100" height="50" as="geometry" />
        </mxCell>
        <mxCell id="FNQd-CyJStNkkXQy5PLT-22" style="edgeStyle=orthogonalEdgeStyle;rounded=0;orthogonalLoop=1;jettySize=auto;html=1;exitX=0.5;exitY=1;exitDx=0;exitDy=0;entryX=0.5;entryY=0;entryDx=0;entryDy=0;" edge="1" parent="1" source="FNQd-CyJStNkkXQy5PLT-9" target="FNQd-CyJStNkkXQy5PLT-10">
          <mxGeometry relative="1" as="geometry" />
        </mxCell>
        <mxCell id="FNQd-CyJStNkkXQy5PLT-9" value="&lt;font style=&quot;font-size: 14px&quot;&gt;接收音视频流&lt;br&gt;&lt;/font&gt;" style="rounded=0;whiteSpace=wrap;html=1;strokeColor=#007FFF;strokeWidth=2;" vertex="1" parent="1">
          <mxGeometry x="200" y="355" width="100" height="50" as="geometry" />
        </mxCell>
        <mxCell id="FNQd-CyJStNkkXQy5PLT-10" value="&lt;font style=&quot;font-size: 14px&quot;&gt;解码呈现&lt;br&gt;&lt;/font&gt;" style="rounded=0;whiteSpace=wrap;html=1;strokeColor=#007FFF;strokeWidth=2;" vertex="1" parent="1">
          <mxGeometry x="200" y="440" width="100" height="50" as="geometry" />
        </mxCell>
        <mxCell id="FNQd-CyJStNkkXQy5PLT-14" style="edgeStyle=orthogonalEdgeStyle;rounded=0;orthogonalLoop=1;jettySize=auto;html=1;" edge="1" parent="1" source="FNQd-CyJStNkkXQy5PLT-12" target="FNQd-CyJStNkkXQy5PLT-3">
          <mxGeometry relative="1" as="geometry" />
        </mxCell>
        <mxCell id="FNQd-CyJStNkkXQy5PLT-26" style="edgeStyle=orthogonalEdgeStyle;rounded=0;orthogonalLoop=1;jettySize=auto;html=1;exitX=0.5;exitY=1;exitDx=0;exitDy=0;entryX=0.5;entryY=0;entryDx=0;entryDy=0;" edge="1" parent="1" source="FNQd-CyJStNkkXQy5PLT-12" target="FNQd-CyJStNkkXQy5PLT-13">
          <mxGeometry relative="1" as="geometry" />
        </mxCell>
        <mxCell id="FNQd-CyJStNkkXQy5PLT-12" value="btn连接热点" style="rhombus;whiteSpace=wrap;html=1;strokeColor=#007FFF;strokeWidth=2;" vertex="1" parent="1">
          <mxGeometry x="380" y="145" width="80" height="80" as="geometry" />
        </mxCell>
        <mxCell id="FNQd-CyJStNkkXQy5PLT-15" style="edgeStyle=orthogonalEdgeStyle;rounded=0;orthogonalLoop=1;jettySize=auto;html=1;exitX=0;exitY=0.5;exitDx=0;exitDy=0;" edge="1" parent="1" source="FNQd-CyJStNkkXQy5PLT-13" target="FNQd-CyJStNkkXQy5PLT-4">
          <mxGeometry relative="1" as="geometry" />
        </mxCell>
        <mxCell id="FNQd-CyJStNkkXQy5PLT-27" style="edgeStyle=orthogonalEdgeStyle;rounded=0;orthogonalLoop=1;jettySize=auto;html=1;exitX=0.5;exitY=1;exitDx=0;exitDy=0;entryX=0.5;entryY=0;entryDx=0;entryDy=0;" edge="1" parent="1" source="FNQd-CyJStNkkXQy5PLT-13" target="FNQd-CyJStNkkXQy5PLT-23">
          <mxGeometry relative="1" as="geometry" />
        </mxCell>
        <mxCell id="FNQd-CyJStNkkXQy5PLT-13" value="btn点击按钮" style="rhombus;whiteSpace=wrap;html=1;strokeColor=#007FFF;strokeWidth=2;" vertex="1" parent="1">
          <mxGeometry x="380" y="245" width="80" height="80" as="geometry" />
        </mxCell>
        <mxCell id="FNQd-CyJStNkkXQy5PLT-25" style="edgeStyle=orthogonalEdgeStyle;rounded=0;orthogonalLoop=1;jettySize=auto;html=1;exitX=0;exitY=0.5;exitDx=0;exitDy=0;entryX=1;entryY=0.5;entryDx=0;entryDy=0;" edge="1" parent="1" source="FNQd-CyJStNkkXQy5PLT-23" target="FNQd-CyJStNkkXQy5PLT-9">
          <mxGeometry relative="1" as="geometry" />
        </mxCell>
        <mxCell id="FNQd-CyJStNkkXQy5PLT-23" value="btn开始投屏" style="rhombus;whiteSpace=wrap;html=1;strokeColor=#007FFF;strokeWidth=2;" vertex="1" parent="1">
          <mxGeometry x="380" y="340" width="80" height="80" as="geometry" />
        </mxCell>
      </root>
    </mxGraphModel>
  </diagram>
</mxfile>
